<svg width="58" height="59" viewBox="0 0 58 59" fill="none" xmlns="http://www.w3.org/2000/svg">
<path d="M38.6668 26.4745L25.3335 39.8079L18.6668 33.1412M2.00012 45.8082V27.9817C2.00012 26.2006 2.00012 25.3095 2.21669 24.4807C2.40862 23.7462 2.7261 23.0512 3.15247 22.4231C3.63359 21.7143 4.30226 21.1266 5.6427 19.9537L21.648 5.94907C24.133 3.77474 25.3755 2.68752 26.7749 2.27369C28.0088 1.90877 29.3241 1.90877 30.5581 2.27369C31.9585 2.68783 33.2028 3.77609 35.6915 5.9537L51.6915 19.9537C53.032 21.1266 53.7009 21.7143 54.182 22.4231C54.6084 23.0512 54.9234 23.7462 55.1154 24.4807C55.3319 25.3095 55.3335 26.2006 55.3335 27.9817V45.8198C55.3335 49.5462 55.3335 51.4114 54.6075 52.8361C53.9684 54.0905 52.9458 55.1095 51.6914 55.7486C50.2668 56.4745 48.4035 56.4745 44.6771 56.4745H12.6565C8.9301 56.4745 7.06413 56.4745 5.63944 55.7486C4.38503 55.1095 3.3659 54.0905 2.72675 52.8361C2.00012 51.41 2.00012 49.5418 2.00012 45.8082Z" stroke="#007BFF" stroke-width="4" stroke-linecap="round" stroke-linejoin="round"/>
</svg>
