<svg width="58" height="64" viewBox="0 0 58 64" fill="none" xmlns="http://www.w3.org/2000/svg">
<path d="M38.6667 22L25.3333 35.3333L18.6667 28.6667M55.3333 25.8835C55.3333 47.7777 38.7731 57.5935 31.7526 60.7713L31.7438 60.7752C31.0054 61.1094 30.6353 61.2769 29.7962 61.421C29.2649 61.5122 28.0718 61.5122 27.5405 61.421C26.6981 61.2763 26.3241 61.1082 25.5798 60.7713C18.5593 57.5936 2 47.7777 2 25.8835V12.6673C2 8.93364 2 7.0654 2.72662 5.63932C3.36578 4.38491 4.38491 3.36578 5.63932 2.72662C7.0654 2 8.93363 2 12.6673 2H44.6673C48.401 2 50.2652 2 51.6913 2.72662C52.9457 3.36578 53.9683 4.38491 54.6074 5.63932C55.3333 7.06401 55.3333 8.92998 55.3333 12.6564V25.8835Z" stroke="#007BFF" stroke-width="4" stroke-linecap="round" stroke-linejoin="round"/>
</svg>
