<svg width="58" height="64" viewBox="0 0 58 64" fill="none" xmlns="http://www.w3.org/2000/svg">
<path d="M2 22H55.3333M2 22V51.334C2 55.0677 2 56.9335 2.72662 58.3596C3.36578 59.614 4.38491 60.6349 5.63932 61.2741C7.06401 62 8.92998 62 12.6564 62H44.677C48.4033 62 50.2666 62 51.6913 61.2741C52.9457 60.6349 53.9683 59.614 54.6074 58.3596C55.3333 56.9349 55.3333 55.0716 55.3333 51.3453V22M2 22V19.334C2 15.6003 2 13.7321 2.72662 12.306C3.36578 11.0516 4.38491 10.0324 5.63932 9.39329C7.0654 8.66667 8.93363 8.66667 12.6673 8.66667H15.3333M55.3333 22V19.323C55.3333 15.5966 55.3333 13.7307 54.6074 12.306C53.9683 11.0516 52.9457 10.0324 51.6913 9.39329C50.2652 8.66667 48.401 8.66667 44.6673 8.66667H42M15.3333 8.66667H42M15.3333 8.66667V2M42 8.66667V2M38.6667 35.3333L25.3333 48.6667L18.6667 42" stroke="#007BFF" stroke-width="4" stroke-linecap="round" stroke-linejoin="round"/>
</svg>
